# xmcd
#
# Track frame offsets:
#	150
#	14015
#	30834
#	46075
#	62959
#	81726
#	96927
#	113680
#	130602
#	146195
#	161738
#	176151
#	192718
#	209229
#	223215
#	240179
#	253677
#	272106
#	291602
#	309524
#
# Disc length: 4290 seconds
#
# Revision: 1
# Processed by: cddbd v1.5.2PL0 Copyright (c) Steve Scherf et al.
# Submitted via: audiograbber 1.83.01
#
DISCID=4010c014
DTITLE=Various Artist - Halland's Country Hits Volume 1
DYEAR=1900
DGENRE=
TTITLE0=Tracy Byrd - Watermelon Crawl
TTITLE1=Mary Chapin Carpenter - He Thinks He'll Keep Her
TTITLE2=Mary Chapin Carpenter - I Take My Chances
TTITLE3=Mary Chapin Carpenter - Shut Up And Kiss Me
TTITLE4=Mark Chesnutt - Almost Goodbye
TTITLE5=Mark Chesnutt - I Just Wanted You To Know
TTITLE6=Mark Chesnutt - She Dreams
TTITLE7=Confederate Railroad - Daddy Never Was The Cadillac Kind
TTITLE8=Confederate Railroad - Elvis And Andy
TTITLE9=Billy Dean - We Just Disagree
TTITLE10=Diamond Rio - Love A Little Stronger
TTITLE11=Joe Diffie - In My Own Backyard
TTITLE12=Joe Diffie - John Deere Green
TTITLE13=Joe Diffie - Third Rock From The Sun
TTITLE14=Vince Gill - Tryin' To Get Over You
TTITLE15=Vince Gill - What The Cowgirls Do
TTITLE16=Vince Gill - When Love Finds You
TTITLE17=Vince Gill - Whenever You Come Around
TTITLE18=Faith Hill - Piece Of My Heart
TTITLE19=Faith Hill - Wild One
EXTD=
EXTT0=
EXTT1=
EXTT2=
EXTT3=
EXTT4=
EXTT5=
EXTT6=
EXTT7=
EXTT8=
EXTT9=
EXTT10=
EXTT11=
EXTT12=
EXTT13=
EXTT14=
EXTT15=
EXTT16=
EXTT17=
EXTT18=
EXTT19=
PLAYORDER=
